<svg width="20" height="15" viewBox="0 0 20 15" fill="none" xmlns="http://www.w3.org/2000/svg">
<path d="M16.3459 10.6356C15.639 10.6356 15.0638 11.2107 15.0638 11.9177C15.0638 12.6246 15.639 13.1997 16.3459 13.1997C17.0528 13.1997 17.6279 12.6246 17.6279 11.9177C17.6279 11.2108 17.0528 10.6356 16.3459 10.6356ZM16.3459 12.5648C15.989 12.5648 15.6988 12.2745 15.6988 11.9177C15.6988 11.5609 15.989 11.2705 16.3459 11.2705C16.7027 11.2705 16.993 11.5608 16.993 11.9177C16.993 12.2745 16.7027 12.5648 16.3459 12.5648Z" fill="black" fill-opacity="0.6"/>
<path d="M19.344 9.42147C18.5994 8.52881 17.5066 8.01686 16.3459 8.01686C16.1514 8.01686 15.9603 8.03137 15.7734 8.05897C15.6445 7.22337 14.8586 6.11743 14.0969 5.21267V2.5234C14.0969 2.42431 14.0506 2.33089 13.9718 2.27082C13.8929 2.21072 13.7904 2.19104 13.695 2.21736L13.1776 2.36009C12.9014 2.43628 12.66 2.58672 12.4729 2.78604L12.2011 1.53588C12.1694 1.38993 12.0402 1.28585 11.8909 1.28585H11.3367V0.828538C11.3367 0.653215 11.1946 0.511078 11.0192 0.511078C10.8439 0.511078 10.7018 0.653215 10.7018 0.828538V2.42655C10.7018 2.60187 10.8439 2.74401 11.0192 2.74401C11.1946 2.74401 11.3367 2.60187 11.3367 2.42655V1.92077H11.635L12.0261 3.7195C11.8587 3.89618 11.7456 4.1151 11.698 4.3562L10.7844 5.36047C10.6664 5.49017 10.6759 5.69097 10.8056 5.80894C10.8665 5.86431 10.9429 5.89156 11.0192 5.89156C11.1054 5.89156 11.1914 5.8566 11.2541 5.78773L11.8057 5.18138C11.8457 5.26215 11.8943 5.33944 11.9516 5.41186C12.3112 5.86621 12.8087 6.56119 13.1368 7.29216C13.4907 8.0806 13.5743 8.73588 13.3854 9.2398C13.1095 9.97529 12.3023 10.5412 11.2261 10.7535C10.0773 10.9802 8.93937 10.7385 8.39487 10.1521C8.15499 9.89381 8.04757 9.63738 8.06644 9.36822C8.10001 8.88958 8.52545 8.31506 9.33086 7.66062C9.33184 7.65982 9.39681 7.58706 9.39766 7.58579C9.64634 7.22778 9.67757 6.76665 9.47766 6.37821C9.27537 5.98511 8.87503 5.74092 8.43292 5.74092H3.85244C2.97629 5.74092 2.25574 6.41787 2.18522 7.27616C2.00271 7.46177 1.57684 7.91611 1.1473 8.52703C0.385989 9.60974 0 10.6202 0 11.5303C0 11.7056 0.142095 11.8478 0.31746 11.8478H0.995385H1.40385C1.40321 11.8711 1.40237 11.8944 1.40237 11.9177C1.40237 13.3477 2.56575 14.5111 3.99576 14.5111C5.19902 14.5111 6.21337 13.6873 6.50479 12.5741H13.8368C14.1283 13.6872 15.1426 14.5111 16.3459 14.5111C17.7759 14.5111 18.9393 13.3477 18.9393 11.9177C18.9393 11.3937 18.7826 10.9058 18.5143 10.4975L19.2981 9.87311C19.3649 9.81986 19.4075 9.74193 19.4161 9.65698C19.4247 9.57195 19.3987 9.48703 19.344 9.42147ZM6.5911 6.3758H8.43292C8.63918 6.3758 8.8187 6.4853 8.91309 6.66871C8.98386 6.80619 8.993 6.95844 8.94267 7.09677H6.5911V6.3758ZM3.85244 6.3758H5.95618V7.09677H2.86357C2.99805 6.67899 3.39051 6.3758 3.85244 6.3758ZM3.99572 13.8762C2.91581 13.8762 2.03725 12.9976 2.03725 11.9177C2.03725 11.8944 2.03792 11.871 2.03873 11.8478H2.71559C2.71437 11.871 2.71365 11.8943 2.71365 11.9177C2.71365 12.6247 3.28876 13.1998 3.99568 13.1998C4.7026 13.1998 5.27775 12.6247 5.27775 11.9177C5.27775 11.8943 5.27703 11.871 5.2758 11.8478H5.95271C5.95352 11.8711 5.95419 11.8944 5.95419 11.9177C5.95423 12.9976 5.07563 13.8762 3.99572 13.8762ZM3.34861 11.9177C3.34861 11.8942 3.35001 11.8709 3.35246 11.8478H4.63902C4.64152 11.8709 4.64287 11.8942 4.64287 11.9177C4.64287 12.2745 4.35259 12.5649 3.99572 12.5649C3.63894 12.5649 3.34861 12.2745 3.34861 11.9177ZM6.0791 11.2128H1.41486C1.51983 10.9093 1.71403 10.4636 2.04884 10.034C2.81523 9.05067 3.93621 8.60344 5.37972 8.70502C6.01955 8.75002 6.42154 8.91861 6.57459 9.20615C6.77459 9.58206 6.60786 10.2567 6.0791 11.2128ZM12.4455 11.9392H6.5886C6.58865 11.932 6.58915 11.9249 6.58915 11.9177C6.58915 11.8213 6.58331 11.7253 6.57282 11.6305C7.06433 10.768 7.55381 9.69478 7.13502 8.9079C6.87241 8.4144 6.29679 8.13305 5.42425 8.07171C3.33235 7.92458 2.15234 8.85766 1.53062 9.66629C1.07064 10.2645 0.845755 10.8768 0.747935 11.2129H0.65384C0.834623 9.66392 2.25794 8.11209 2.62823 7.73178H8.30572C7.75538 8.29385 7.46852 8.81876 7.43309 9.32386C7.40168 9.77156 7.56871 10.1956 7.92955 10.5842C8.62886 11.3373 9.97108 11.6483 11.3489 11.3764C11.7956 11.2883 12.2053 11.1453 12.5648 10.957C12.4867 11.2645 12.445 11.5863 12.445 11.9178C12.445 11.9249 12.4455 11.932 12.4455 11.9392ZM13.3464 2.97216L13.4619 2.94028V4.49313C13.1355 4.13906 12.8584 3.86033 12.702 3.70629C12.7513 3.3598 13.0021 3.06714 13.3464 2.97216ZM12.4494 5.01779C12.3392 4.87849 12.2906 4.70443 12.3127 4.52771C12.3232 4.44306 12.3493 4.36297 12.3891 4.29051C13.3105 5.218 15.0604 7.17567 15.1527 8.20373C14.78 8.32378 14.4316 8.49842 14.1169 8.71832C14.1348 7.89097 13.7724 6.68945 12.4494 5.01779ZM16.3459 13.8762C15.266 13.8762 14.3874 12.9976 14.3874 11.9177C14.3874 10.8378 15.266 9.95925 16.3459 9.95925C17.4258 9.95925 18.3044 10.8378 18.3044 11.9177C18.3044 12.9976 17.4258 13.8762 16.3459 13.8762ZM18.1035 10.0129C17.641 9.58583 17.0235 9.32428 16.3459 9.32428C14.9159 9.32428 13.7524 10.4877 13.7524 11.9177C13.7524 11.9249 13.7529 11.932 13.753 11.9392H13.0804C13.0804 11.932 13.0799 11.9249 13.0799 11.9177C13.0799 10.1168 14.545 8.65173 16.3458 8.65173C17.2087 8.65173 18.0268 8.98972 18.636 9.58875L18.1035 10.0129Z" fill="black" fill-opacity="0.6"/>
</svg>
