<svg width="300" height="135" viewBox="0 0 300 135" fill="none" xmlns="http://www.w3.org/2000/svg">
<rect width="300" height="135" rx="10" fill="#206CFF"/>
<circle cx="134.5" cy="99.5" r="6.5" fill="#56CCF2" fill-opacity="0.47"/>
<path fill-rule="evenodd" clip-rule="evenodd" d="M231.744 0H290C295.523 0 300 4.47715 300 10V54.0033C292.479 59.6525 283.13 63 273 63C248.147 63 228 42.8528 228 18C228 11.6001 229.336 5.51216 231.744 0Z" fill="#56CCF2" fill-opacity="0.47"/>
<path fill-rule="evenodd" clip-rule="evenodd" d="M248.998 0H290C295.523 0 300 4.47715 300 10V31.0924C295.138 41.1009 284.875 48 273 48C256.431 48 243 34.5685 243 18C243 11.2464 245.232 5.01396 248.998 0Z" fill="#206CFF"/>
<path fill-rule="evenodd" clip-rule="evenodd" d="M244.37 135H210.63C198.392 128.825 190 116.143 190 101.5C190 80.7893 206.789 64 227.5 64C248.211 64 265 80.7893 265 101.5C265 116.143 256.608 128.825 244.37 135Z" fill="#56CCF2" fill-opacity="0.47"/>
<circle cx="227.5" cy="102.75" r="21.5" fill="#206CFF"/>
<circle cx="179.5" cy="53.5" r="10.5" fill="#56CCF2" fill-opacity="0.47"/>
<circle cx="179.5" cy="53.5" r="6.5" fill="#206CFF"/>
<path d="M26.22 38.18C25.03 38.18 24.075 37.855 23.355 37.205C22.635 36.545 22.275 35.485 22.275 34.025V27.5H23.835V34.025C23.835 35.005 24.045 35.695 24.465 36.095C24.885 36.485 25.47 36.68 26.22 36.68C26.97 36.68 27.555 36.485 27.975 36.095C28.405 35.695 28.62 35.005 28.62 34.025V27.5H30.18V34.025C30.18 35.485 29.825 36.545 29.115 37.205C28.405 37.855 27.44 38.18 26.22 38.18ZM37.174 38V33.425C37.174 32.815 37.034 32.365 36.754 32.075C36.474 31.775 36.104 31.625 35.644 31.625C34.544 31.625 33.994 32.215 33.994 33.395V38H32.434V30.335H33.994V31.07C34.474 30.46 35.134 30.155 35.974 30.155C37.814 30.155 38.734 31.245 38.734 33.425V38H37.174ZM42.9854 38.18C41.8454 38.18 41.2754 37.545 41.2754 36.275V31.685H40.0904V30.335H41.2754V27.92L42.8354 27.17V30.335H44.6504V31.685H42.8354V35.87C42.8354 36.45 43.0854 36.74 43.5854 36.74C43.9554 36.74 44.3354 36.62 44.7254 36.38L44.5304 37.835C44.0704 38.065 43.5554 38.18 42.9854 38.18ZM50.217 38V37.265C49.737 37.875 49.077 38.18 48.237 38.18C46.397 38.18 45.477 37.09 45.477 34.91V30.335H47.037V34.91C47.037 35.52 47.177 35.975 47.457 36.275C47.737 36.565 48.107 36.71 48.567 36.71C49.667 36.71 50.217 36.12 50.217 34.94V30.335H51.777V38H50.217ZM60.4084 38H58.6984L56.4334 33.59L55.4434 34.58V38H53.8834V27.905L55.4434 27.17V32.705L57.7084 30.335H59.6284L57.5284 32.465L60.4084 38ZM67.804 38.18C67.204 38.18 66.639 38.07 66.109 37.85C65.579 37.62 65.179 37.315 64.909 36.935L66.019 35.99C66.569 36.51 67.154 36.77 67.774 36.77C68.674 36.77 69.124 36.495 69.124 35.945C69.124 35.755 69.039 35.58 68.869 35.42C68.699 35.26 68.529 35.145 68.359 35.075C68.189 34.995 67.914 34.88 67.534 34.73C66.694 34.45 66.074 34.12 65.674 33.74C65.284 33.36 65.089 32.87 65.089 32.27C65.089 31.61 65.339 31.095 65.839 30.725C66.349 30.345 66.989 30.155 67.759 30.155C68.909 30.155 69.804 30.54 70.444 31.31L69.319 32.21C68.909 31.78 68.389 31.565 67.759 31.565C67.429 31.565 67.164 31.63 66.964 31.76C66.774 31.88 66.679 32.05 66.679 32.27C66.679 32.5 66.794 32.69 67.024 32.84C67.264 32.98 67.644 33.15 68.164 33.35C69.034 33.64 69.669 33.98 70.069 34.37C70.479 34.76 70.684 35.285 70.684 35.945C70.684 36.665 70.424 37.22 69.904 37.61C69.394 37.99 68.694 38.18 67.804 38.18ZM75.5081 38.18C74.4381 38.18 73.5881 37.825 72.9581 37.115C72.3381 36.395 72.0281 35.41 72.0281 34.16C72.0281 32.91 72.3431 31.93 72.9731 31.22C73.6031 30.51 74.4481 30.155 75.5081 30.155C76.4681 30.155 77.2581 30.46 77.8781 31.07C78.4981 31.68 78.8081 32.57 78.8081 33.74C78.8081 34.17 78.7881 34.505 78.7481 34.745H73.5881C73.5981 35.355 73.7931 35.85 74.1731 36.23C74.5631 36.61 75.0131 36.8 75.5231 36.8C76.1831 36.8 76.7131 36.54 77.1131 36.02L78.1331 37.07C77.5131 37.81 76.6381 38.18 75.5081 38.18ZM73.5881 33.485H77.2481C77.2381 32.825 77.0631 32.335 76.7231 32.015C76.3831 31.695 75.9781 31.535 75.5081 31.535C74.9781 31.535 74.5331 31.695 74.1731 32.015C73.8231 32.325 73.6281 32.815 73.5881 33.485ZM80.5312 38V27.905L82.0912 27.17V38H80.5312ZM88.9263 38V37.265C88.4463 37.875 87.7863 38.18 86.9463 38.18C85.1063 38.18 84.1863 37.09 84.1863 34.91V30.335H85.7463V34.91C85.7463 35.52 85.8863 35.975 86.1663 36.275C86.4463 36.565 86.8163 36.71 87.2763 36.71C88.3763 36.71 88.9263 36.12 88.9263 34.94V30.335H90.4863V38H88.9263ZM92.5928 38V30.335H94.1528V31.265C94.4928 30.525 95.0628 30.155 95.8628 30.155C96.3628 30.155 96.7928 30.31 97.1528 30.62L96.9278 32.06C96.5578 31.81 96.1528 31.685 95.7128 31.685C95.2928 31.685 94.9278 31.845 94.6178 32.165C94.3078 32.475 94.1528 32.985 94.1528 33.695V38H92.5928ZM102.923 38V37.265C102.443 37.875 101.783 38.18 100.943 38.18C99.1032 38.18 98.1832 37.09 98.1832 34.91V30.335H99.7432V34.91C99.7432 35.52 99.8832 35.975 100.163 36.275C100.443 36.565 100.813 36.71 101.273 36.71C102.373 36.71 102.923 36.12 102.923 34.94V30.335H104.483V38H102.923ZM106.59 38V27.89L108.15 27.17V31.07C108.63 30.46 109.29 30.155 110.13 30.155C111.97 30.155 112.89 31.245 112.89 33.425V38H111.33V33.425C111.33 32.815 111.19 32.365 110.91 32.075C110.63 31.775 110.26 31.625 109.8 31.625C108.7 31.625 108.15 32.215 108.15 33.395V38H106.59ZM120.595 38.18C119.455 38.18 118.885 37.545 118.885 36.275V31.685H117.7V30.335H118.885V27.92L120.445 27.17V30.335H122.26V31.685H120.445V35.87C120.445 36.45 120.695 36.74 121.195 36.74C121.565 36.74 121.945 36.62 122.335 36.38L122.14 37.835C121.68 38.065 121.165 38.18 120.595 38.18ZM123.908 38V30.335H125.468V31.265C125.808 30.525 126.378 30.155 127.178 30.155C127.678 30.155 128.108 30.31 128.468 30.62L128.243 32.06C127.873 31.81 127.468 31.685 127.028 31.685C126.608 31.685 126.243 31.845 125.933 32.165C125.623 32.475 125.468 32.985 125.468 33.695V38H123.908ZM133.807 38V37.34C133.267 37.9 132.567 38.18 131.707 38.18C130.897 38.18 130.237 37.96 129.727 37.52C129.227 37.07 128.977 36.435 128.977 35.615C128.977 34.785 129.262 34.155 129.832 33.725C130.402 33.295 131.097 33.08 131.917 33.08C132.667 33.08 133.297 33.23 133.807 33.53V33.11C133.807 32.54 133.677 32.135 133.417 31.895C133.157 31.655 132.742 31.535 132.172 31.535C131.332 31.535 130.602 31.765 129.982 32.225L129.517 30.95C130.287 30.42 131.242 30.155 132.382 30.155C132.762 30.155 133.102 30.19 133.402 30.26C133.702 30.32 134.007 30.445 134.317 30.635C134.627 30.815 134.867 31.11 135.037 31.52C135.217 31.93 135.307 32.435 135.307 33.035V38H133.807ZM131.992 36.8C132.712 36.8 133.317 36.525 133.807 35.975V34.805C133.337 34.555 132.792 34.43 132.172 34.43C131.672 34.43 131.262 34.53 130.942 34.73C130.632 34.92 130.477 35.215 130.477 35.615C130.477 35.985 130.607 36.275 130.867 36.485C131.127 36.695 131.502 36.8 131.992 36.8ZM142.001 38V33.425C142.001 32.815 141.861 32.365 141.581 32.075C141.301 31.775 140.931 31.625 140.471 31.625C139.371 31.625 138.821 32.215 138.821 33.395V38H137.261V30.335H138.821V31.07C139.301 30.46 139.961 30.155 140.801 30.155C142.641 30.155 143.561 31.245 143.561 33.425V38H142.001ZM147.962 38.18C147.362 38.18 146.797 38.07 146.267 37.85C145.737 37.62 145.337 37.315 145.067 36.935L146.177 35.99C146.727 36.51 147.312 36.77 147.932 36.77C148.832 36.77 149.282 36.495 149.282 35.945C149.282 35.755 149.197 35.58 149.027 35.42C148.857 35.26 148.687 35.145 148.517 35.075C148.347 34.995 148.072 34.88 147.692 34.73C146.852 34.45 146.232 34.12 145.832 33.74C145.442 33.36 145.247 32.87 145.247 32.27C145.247 31.61 145.497 31.095 145.997 30.725C146.507 30.345 147.147 30.155 147.917 30.155C149.067 30.155 149.962 30.54 150.602 31.31L149.477 32.21C149.067 31.78 148.547 31.565 147.917 31.565C147.587 31.565 147.322 31.63 147.122 31.76C146.932 31.88 146.837 32.05 146.837 32.27C146.837 32.5 146.952 32.69 147.182 32.84C147.422 32.98 147.802 33.15 148.322 33.35C149.192 33.64 149.827 33.98 150.227 34.37C150.637 34.76 150.842 35.285 150.842 35.945C150.842 36.665 150.582 37.22 150.062 37.61C149.552 37.99 148.852 38.18 147.962 38.18ZM156.941 38V37.34C156.401 37.9 155.701 38.18 154.841 38.18C154.031 38.18 153.371 37.96 152.861 37.52C152.361 37.07 152.111 36.435 152.111 35.615C152.111 34.785 152.396 34.155 152.966 33.725C153.536 33.295 154.231 33.08 155.051 33.08C155.801 33.08 156.431 33.23 156.941 33.53V33.11C156.941 32.54 156.811 32.135 156.551 31.895C156.291 31.655 155.876 31.535 155.306 31.535C154.466 31.535 153.736 31.765 153.116 32.225L152.651 30.95C153.421 30.42 154.376 30.155 155.516 30.155C155.896 30.155 156.236 30.19 156.536 30.26C156.836 30.32 157.141 30.445 157.451 30.635C157.761 30.815 158.001 31.11 158.171 31.52C158.351 31.93 158.441 32.435 158.441 33.035V38H156.941ZM155.126 36.8C155.846 36.8 156.451 36.525 156.941 35.975V34.805C156.471 34.555 155.926 34.43 155.306 34.43C154.806 34.43 154.396 34.53 154.076 34.73C153.766 34.92 153.611 35.215 153.611 35.615C153.611 35.985 153.741 36.275 154.001 36.485C154.261 36.695 154.636 36.8 155.126 36.8ZM166.92 38H165.21L162.945 33.59L161.955 34.58V38H160.395V27.905L161.955 27.17V32.705L164.22 30.335H166.14L164.04 32.465L166.92 38ZM170.862 38.18C170.262 38.18 169.697 38.07 169.167 37.85C168.637 37.62 168.237 37.315 167.967 36.935L169.077 35.99C169.627 36.51 170.212 36.77 170.832 36.77C171.732 36.77 172.182 36.495 172.182 35.945C172.182 35.755 172.097 35.58 171.927 35.42C171.757 35.26 171.587 35.145 171.417 35.075C171.247 34.995 170.972 34.88 170.592 34.73C169.752 34.45 169.132 34.12 168.732 33.74C168.342 33.36 168.147 32.87 168.147 32.27C168.147 31.61 168.397 31.095 168.897 30.725C169.407 30.345 170.047 30.155 170.817 30.155C171.967 30.155 172.862 30.54 173.502 31.31L172.377 32.21C171.967 31.78 171.447 31.565 170.817 31.565C170.487 31.565 170.222 31.63 170.022 31.76C169.832 31.88 169.737 32.05 169.737 32.27C169.737 32.5 169.852 32.69 170.082 32.84C170.322 32.98 170.702 33.15 171.222 33.35C172.092 33.64 172.727 33.98 173.127 34.37C173.537 34.76 173.742 35.285 173.742 35.945C173.742 36.665 173.482 37.22 172.962 37.61C172.452 37.99 171.752 38.18 170.862 38.18ZM176.916 28.865C176.736 29.045 176.516 29.135 176.256 29.135C175.996 29.135 175.771 29.045 175.581 28.865C175.401 28.675 175.311 28.45 175.311 28.19C175.311 27.93 175.401 27.71 175.581 27.53C175.771 27.34 175.996 27.245 176.256 27.245C176.516 27.245 176.736 27.34 176.916 27.53C177.106 27.71 177.201 27.93 177.201 28.19C177.201 28.45 177.106 28.675 176.916 28.865ZM175.476 38V30.335H177.036V38H175.476ZM25.095 59.18C24.065 59.18 23.25 58.825 22.65 58.115C22.05 57.405 21.75 56.425 21.75 55.175C21.75 53.925 22.05 52.945 22.65 52.235C23.25 51.515 24.065 51.155 25.095 51.155C26.585 51.155 27.55 51.815 27.99 53.135L26.505 53.645C26.255 52.985 25.805 52.655 25.155 52.655C24.575 52.655 24.125 52.88 23.805 53.33C23.495 53.77 23.34 54.385 23.34 55.175C23.34 55.955 23.495 56.57 23.805 57.02C24.115 57.46 24.545 57.68 25.095 57.68C25.835 57.68 26.315 57.305 26.535 56.555L28.02 57.02C27.61 58.46 26.635 59.18 25.095 59.18ZM33.9722 59V58.34C33.4322 58.9 32.7322 59.18 31.8722 59.18C31.0622 59.18 30.4022 58.96 29.8922 58.52C29.3922 58.07 29.1422 57.435 29.1422 56.615C29.1422 55.785 29.4272 55.155 29.9972 54.725C30.5672 54.295 31.2622 54.08 32.0822 54.08C32.8322 54.08 33.4622 54.23 33.9722 54.53V54.11C33.9722 53.54 33.8422 53.135 33.5822 52.895C33.3222 52.655 32.9072 52.535 32.3372 52.535C31.4972 52.535 30.7672 52.765 30.1472 53.225L29.6822 51.95C30.4522 51.42 31.4072 51.155 32.5472 51.155C32.9272 51.155 33.2672 51.19 33.5672 51.26C33.8672 51.32 34.1722 51.445 34.4822 51.635C34.7922 51.815 35.0322 52.11 35.2022 52.52C35.3822 52.93 35.4722 53.435 35.4722 54.035V59H33.9722ZM32.1572 57.8C32.8772 57.8 33.4822 57.525 33.9722 56.975V55.805C33.5022 55.555 32.9572 55.43 32.3372 55.43C31.8372 55.43 31.4272 55.53 31.1072 55.73C30.7972 55.92 30.6422 56.215 30.6422 56.615C30.6422 56.985 30.7722 57.275 31.0322 57.485C31.2922 57.695 31.6672 57.8 32.1572 57.8ZM39.7956 59.18C39.1956 59.18 38.6306 59.07 38.1006 58.85C37.5706 58.62 37.1706 58.315 36.9006 57.935L38.0106 56.99C38.5606 57.51 39.1456 57.77 39.7656 57.77C40.6656 57.77 41.1156 57.495 41.1156 56.945C41.1156 56.755 41.0306 56.58 40.8606 56.42C40.6906 56.26 40.5206 56.145 40.3506 56.075C40.1806 55.995 39.9056 55.88 39.5256 55.73C38.6856 55.45 38.0656 55.12 37.6656 54.74C37.2756 54.36 37.0806 53.87 37.0806 53.27C37.0806 52.61 37.3306 52.095 37.8306 51.725C38.3406 51.345 38.9806 51.155 39.7506 51.155C40.9006 51.155 41.7956 51.54 42.4356 52.31L41.3106 53.21C40.9006 52.78 40.3806 52.565 39.7506 52.565C39.4206 52.565 39.1556 52.63 38.9556 52.76C38.7656 52.88 38.6706 53.05 38.6706 53.27C38.6706 53.5 38.7856 53.69 39.0156 53.84C39.2556 53.98 39.6356 54.15 40.1556 54.35C41.0256 54.64 41.6606 54.98 42.0606 55.37C42.4706 55.76 42.6756 56.285 42.6756 56.945C42.6756 57.665 42.4156 58.22 41.8956 58.61C41.3856 58.99 40.6856 59.18 39.7956 59.18ZM44.3947 59V48.89L45.9547 48.17V52.07C46.4347 51.46 47.0947 51.155 47.9347 51.155C49.7747 51.155 50.6947 52.245 50.6947 54.425V59H49.1347V54.425C49.1347 53.815 48.9947 53.365 48.7147 53.075C48.4347 52.775 48.0647 52.625 47.6047 52.625C46.5047 52.625 45.9547 53.215 45.9547 54.395V59H44.3947ZM56.1012 59.18C55.3712 59.18 54.7662 58.915 54.2862 58.385V59H52.7262V48.89L54.2862 48.17V51.92C54.7462 51.41 55.3512 51.155 56.1012 51.155C57.0512 51.155 57.8162 51.515 58.3962 52.235C58.9862 52.945 59.2812 53.92 59.2812 55.16C59.2812 56.44 58.9962 57.43 58.4262 58.13C57.8662 58.83 57.0912 59.18 56.1012 59.18ZM55.9062 57.71C56.4862 57.71 56.9312 57.485 57.2412 57.035C57.5612 56.575 57.7212 55.95 57.7212 55.16C57.7212 54.34 57.5662 53.715 57.2562 53.285C56.9462 52.845 56.4962 52.625 55.9062 52.625C55.5462 52.625 55.2212 52.715 54.9312 52.895C54.6412 53.065 54.4262 53.265 54.2862 53.495V56.84C54.6462 57.42 55.1862 57.71 55.9062 57.71ZM65.379 59V58.34C64.839 58.9 64.139 59.18 63.279 59.18C62.469 59.18 61.809 58.96 61.299 58.52C60.799 58.07 60.549 57.435 60.549 56.615C60.549 55.785 60.834 55.155 61.404 54.725C61.974 54.295 62.669 54.08 63.489 54.08C64.239 54.08 64.869 54.23 65.379 54.53V54.11C65.379 53.54 65.249 53.135 64.989 52.895C64.729 52.655 64.314 52.535 63.744 52.535C62.904 52.535 62.174 52.765 61.554 53.225L61.089 51.95C61.859 51.42 62.814 51.155 63.954 51.155C64.334 51.155 64.674 51.19 64.974 51.26C65.274 51.32 65.579 51.445 65.889 51.635C66.199 51.815 66.439 52.11 66.609 52.52C66.789 52.93 66.879 53.435 66.879 54.035V59H65.379ZM63.564 57.8C64.284 57.8 64.889 57.525 65.379 56.975V55.805C64.909 55.555 64.364 55.43 63.744 55.43C63.244 55.43 62.834 55.53 62.514 55.73C62.204 55.92 62.049 56.215 62.049 56.615C62.049 56.985 62.179 57.275 62.439 57.485C62.699 57.695 63.074 57.8 63.564 57.8ZM75.3574 59H73.6474L71.3824 54.59L70.3924 55.58V59H68.8324V48.905L70.3924 48.17V53.705L72.6574 51.335H74.5774L72.4774 53.465L75.3574 59ZM80.383 59V48.89L81.943 48.17V52.07C82.423 51.46 83.083 51.155 83.923 51.155C85.763 51.155 86.683 52.245 86.683 54.425V59H85.123V54.425C85.123 53.815 84.983 53.365 84.703 53.075C84.423 52.775 84.053 52.625 83.593 52.625C82.493 52.625 81.943 53.215 81.943 54.395V59H80.383ZM90.1695 49.865C89.9895 50.045 89.7695 50.135 89.5095 50.135C89.2495 50.135 89.0245 50.045 88.8345 49.865C88.6545 49.675 88.5645 49.45 88.5645 49.19C88.5645 48.93 88.6545 48.71 88.8345 48.53C89.0245 48.34 89.2495 48.245 89.5095 48.245C89.7695 48.245 89.9895 48.34 90.1695 48.53C90.3595 48.71 90.4545 48.93 90.4545 49.19C90.4545 49.45 90.3595 49.675 90.1695 49.865ZM88.7295 59V51.335H90.2895V59H88.7295ZM97.1423 59V54.425C97.1423 53.815 97.0023 53.365 96.7223 53.075C96.4423 52.775 96.0723 52.625 95.6123 52.625C94.5123 52.625 93.9623 53.215 93.9623 54.395V59H92.4023V51.335H93.9623V52.07C94.4423 51.46 95.1023 51.155 95.9423 51.155C97.7823 51.155 98.7023 52.245 98.7023 54.425V59H97.1423ZM103.299 62L102.519 60.8C103.579 60.74 104.314 60.56 104.724 60.26C105.144 59.97 105.354 59.57 105.354 59.06V58.385C104.924 58.915 104.309 59.18 103.509 59.18C102.589 59.18 101.834 58.835 101.244 58.145C100.654 57.445 100.359 56.45 100.359 55.16C100.359 53.92 100.649 52.945 101.229 52.235C101.819 51.515 102.589 51.155 103.539 51.155C104.289 51.155 104.894 51.395 105.354 51.875V51.335H106.914V58.505C106.914 59.685 106.619 60.54 106.029 61.07C105.439 61.6 104.529 61.91 103.299 62ZM103.794 57.71C104.474 57.71 104.994 57.41 105.354 56.81V53.495C105.194 53.235 104.969 53.025 104.679 52.865C104.399 52.705 104.104 52.625 103.794 52.625C103.184 52.625 102.719 52.845 102.399 53.285C102.079 53.715 101.919 54.34 101.919 55.16C101.919 55.94 102.084 56.56 102.414 57.02C102.754 57.48 103.214 57.71 103.794 57.71ZM111.572 62L110.792 60.8C111.852 60.74 112.587 60.56 112.997 60.26C113.417 59.97 113.627 59.57 113.627 59.06V58.385C113.197 58.915 112.582 59.18 111.782 59.18C110.862 59.18 110.107 58.835 109.517 58.145C108.927 57.445 108.632 56.45 108.632 55.16C108.632 53.92 108.922 52.945 109.502 52.235C110.092 51.515 110.862 51.155 111.812 51.155C112.562 51.155 113.167 51.395 113.627 51.875V51.335H115.187V58.505C115.187 59.685 114.892 60.54 114.302 61.07C113.712 61.6 112.802 61.91 111.572 62ZM112.067 57.71C112.747 57.71 113.267 57.41 113.627 56.81V53.495C113.467 53.235 113.242 53.025 112.952 52.865C112.672 52.705 112.377 52.625 112.067 52.625C111.457 52.625 110.992 52.845 110.672 53.285C110.352 53.715 110.192 54.34 110.192 55.16C110.192 55.94 110.357 56.56 110.687 57.02C111.027 57.48 111.487 57.71 112.067 57.71ZM121.659 59V58.34C121.119 58.9 120.419 59.18 119.559 59.18C118.749 59.18 118.089 58.96 117.579 58.52C117.079 58.07 116.829 57.435 116.829 56.615C116.829 55.785 117.114 55.155 117.684 54.725C118.254 54.295 118.949 54.08 119.769 54.08C120.519 54.08 121.149 54.23 121.659 54.53V54.11C121.659 53.54 121.529 53.135 121.269 52.895C121.009 52.655 120.594 52.535 120.024 52.535C119.184 52.535 118.454 52.765 117.834 53.225L117.369 51.95C118.139 51.42 119.094 51.155 120.234 51.155C120.614 51.155 120.954 51.19 121.254 51.26C121.554 51.32 121.859 51.445 122.169 51.635C122.479 51.815 122.719 52.11 122.889 52.52C123.069 52.93 123.159 53.435 123.159 54.035V59H121.659ZM119.844 57.8C120.564 57.8 121.169 57.525 121.659 56.975V55.805C121.189 55.555 120.644 55.43 120.024 55.43C119.524 55.43 119.114 55.53 118.794 55.73C118.484 55.92 118.329 56.215 118.329 56.615C118.329 56.985 118.459 57.275 118.719 57.485C118.979 57.695 119.354 57.8 119.844 57.8Z" fill="white"/>
<path d="M31.2904 103.432C28.0984 103.432 25.4944 102.628 23.4784 101.02L26.1064 97.204C27.7864 98.284 29.5144 98.824 31.2904 98.824C32.7544 98.824 33.9184 98.452 34.7824 97.708C35.6704 96.94 36.1144 95.884 36.1144 94.54C36.1144 93.388 35.8024 92.488 35.1784 91.84C34.5544 91.168 33.6784 90.832 32.5504 90.832C31.0384 90.832 29.7544 91.42 28.6984 92.596L24.1984 90.472L24.8464 77.8H39.3904V82.48H29.3464L29.0584 87.052C30.2824 86.5 31.5184 86.224 32.7664 86.224C35.3824 86.224 37.3984 87.016 38.8144 88.6C40.2544 90.184 40.9744 92.164 40.9744 94.54C40.9744 97.252 40.0624 99.412 38.2384 101.02C36.4384 102.628 34.1224 103.432 31.2904 103.432ZM59.137 102.316C57.889 103.06 56.401 103.432 54.673 103.432C52.945 103.432 51.445 103.06 50.173 102.316C48.925 101.548 47.965 100.516 47.293 99.22C46.621 97.9 46.129 96.52 45.817 95.08C45.529 93.616 45.385 92.056 45.385 90.4C45.385 88.72 45.529 87.16 45.817 85.72C46.129 84.256 46.621 82.876 47.293 81.58C47.965 80.284 48.925 79.264 50.173 78.52C51.445 77.752 52.945 77.368 54.673 77.368C56.065 77.368 57.301 77.62 58.381 78.124C59.485 78.628 60.373 79.3 61.045 80.14C61.741 80.956 62.305 81.94 62.737 83.092C63.193 84.244 63.505 85.42 63.673 86.62C63.865 87.796 63.961 89.056 63.961 90.4C63.961 92.056 63.805 93.616 63.493 95.08C63.205 96.52 62.725 97.9 62.053 99.22C61.381 100.516 60.409 101.548 59.137 102.316ZM52.549 98.14C53.149 98.596 53.857 98.824 54.673 98.824C55.489 98.824 56.197 98.596 56.797 98.14C57.397 97.66 57.853 97.012 58.165 96.196C58.501 95.356 58.741 94.468 58.885 93.532C59.029 92.572 59.101 91.528 59.101 90.4C59.101 89.272 59.029 88.24 58.885 87.304C58.741 86.344 58.501 85.456 58.165 84.64C57.853 83.8 57.397 83.152 56.797 82.696C56.197 82.216 55.489 81.976 54.673 81.976C53.857 81.976 53.149 82.216 52.549 82.696C51.949 83.152 51.481 83.8 51.145 84.64C50.833 85.456 50.605 86.344 50.461 87.304C50.317 88.24 50.245 89.272 50.245 90.4C50.245 91.528 50.317 92.572 50.461 93.532C50.605 94.468 50.833 95.356 51.145 96.196C51.481 97.012 51.949 97.66 52.549 98.14ZM73.9386 90.544C71.8746 90.544 70.3386 89.884 69.3306 88.564C68.3226 87.244 67.8186 85.708 67.8186 83.956C67.8186 83.188 67.9266 82.444 68.1426 81.724C68.3826 80.98 68.7306 80.272 69.1866 79.6C69.6426 78.928 70.2786 78.388 71.0946 77.98C71.9106 77.572 72.8586 77.368 73.9386 77.368C76.0026 77.368 77.5386 78.028 78.5466 79.348C79.5546 80.668 80.0586 82.204 80.0586 83.956C80.0586 84.724 79.9506 85.48 79.7346 86.224C79.5186 86.944 79.1826 87.64 78.7266 88.312C78.2706 88.984 77.6226 89.524 76.7826 89.932C75.9666 90.34 75.0186 90.544 73.9386 90.544ZM75.1266 103.432H70.4826L87.6546 77.368H92.2986L75.1266 103.432ZM72.3906 85.936C72.7506 86.416 73.2666 86.656 73.9386 86.656C74.6106 86.656 75.1266 86.404 75.4866 85.9C75.8466 85.372 76.0266 84.724 76.0266 83.956C76.0266 83.14 75.8466 82.492 75.4866 82.012C75.1266 81.508 74.6106 81.256 73.9386 81.256C73.2666 81.256 72.7506 81.52 72.3906 82.048C72.0306 82.552 71.8506 83.188 71.8506 83.956C71.8506 84.772 72.0306 85.432 72.3906 85.936ZM88.8426 103.432C86.7786 103.432 85.2426 102.784 84.2346 101.488C83.2266 100.168 82.7226 98.62 82.7226 96.844C82.7226 96.076 82.8306 95.332 83.0466 94.612C83.2866 93.868 83.6346 93.16 84.0906 92.488C84.5466 91.816 85.1826 91.276 85.9986 90.868C86.8146 90.46 87.7626 90.256 88.8426 90.256C90.9066 90.256 92.4426 90.916 93.4506 92.236C94.4586 93.532 94.9626 95.068 94.9626 96.844C94.9626 97.924 94.7826 98.932 94.4226 99.868C94.0626 100.804 93.4026 101.632 92.4426 102.352C91.4826 103.072 90.2826 103.432 88.8426 103.432ZM88.8426 99.544C89.5146 99.544 90.0306 99.292 90.3906 98.788C90.7506 98.26 90.9306 97.612 90.9306 96.844C90.9306 96.028 90.7506 95.38 90.3906 94.9C90.0306 94.396 89.5146 94.144 88.8426 94.144C88.1706 94.144 87.6546 94.408 87.2946 94.936C86.9346 95.44 86.7546 96.076 86.7546 96.844C86.7546 98.644 87.4506 99.544 88.8426 99.544Z" fill="white"/>
</svg>
