<?xml version="1.0" encoding="iso-8859-1"?>
<!-- Generator: Adobe Illustrator 19.0.0, SVG Export Plug-In . SVG Version: 6.00 Build 0)  -->
<svg version="1.1" id="Capa_1" xmlns="http://www.w3.org/2000/svg" xmlns:xlink="http://www.w3.org/1999/xlink" x="0px" y="0px"
	 viewBox="0 0 469.333 469.333" style="enable-background:new 0 0 469.333 469.333;" xml:space="preserve">
<g>
	<g>
		<g>
			<path d="M467.065,366.73c-0.314-0.396-30.958-39.814-40.919-71.324c-2.366-7.503-5.315-18.068-8.701-30.176
				c-16.193-57.924-30.938-107.21-47.276-123.539c-12.396-12.396-48.908-21.782-80.145-27.855
				c-6.548-1.273-12.604,3.824-12.604,10.496v77.244c0,3.777,1.007,7.642,2.927,10.894c8.538,14.457,16.134,22.96,20.029,24.583
				c5.439,2.262,8.003,8.513,5.741,13.952c-2.26,5.44-8.513,8.013-13.952,5.742c-17.495-7.284-36.022-40.336-47.536-68.834
				c-1.863-4.621-6.938-12.841-11.26-19.251c-13.454-19.122-35.189-40.967-54.896-44.978c-10.211-2.083-19.234,0.46-26.122,7.336
				c-25.674,25.674-10.983,69.366,9.43,98.958c16.339,23.685,28.457,51.673,30.177,69.647c0.281,2.991,0.406,5.826,0.542,8.617
				c0.719,15.411,1.458,31.344,22.788,60.665c11.462,15.755,26.405,24.81,42.223,34.406c21.697,13.163,44.141,26.769,63.741,60.479
				c1.892,3.254,5.439,5.536,9.203,5.54c101.656,0.099,137.81-91.286,138.164-92.214
				C469.971,373.649,469.378,369.679,467.065,366.73z"/>
			<path d="M38.146,1.967c-2.822-2.009-6.447-2.514-9.718-1.347C11.428,6.724,0,23.005,0,41.128v301.747
				c0,18.123,11.427,34.404,28.427,40.508c3.271,1.168,6.896,0.663,9.718-1.347c2.834-2.021,4.521-5.305,4.521-8.809V10.776
				C42.667,7.273,40.98,3.989,38.146,1.967z"/>
			<path d="M171.282,309.283c-0.125-2.813-0.24-5.147-0.479-7.604c-0.918-9.813-8.741-33.793-26.48-59.501
				c-8.073-11.698-26.833-42.489-26.833-75.646c0-20.021,6.874-37.479,19.884-50.489c11.834-11.833,28.396-16.637,45.448-13.168
				c16.107,3.293,33.98,14.822,50.743,32.498l0.003-0.091c0.164,0.176,0.306,0.37,0.469,0.545c0.156,0.165,0.319,0.288,0.474,0.454
				v0.095c8.422,9.166,15.808,19.166,21.489,28.236v-56.507v-1.438v-64C256,19.136,236.865,0,213.334,0H95.999
				c-5.895,0-10.666,4.771-10.666,10.667v362.668c0,5.897,4.771,10.667,10.666,10.667h83.918c3.854,0,7.407-2.084,9.302-5.438
				c1.864-3.364,1.802-7.489-0.187-10.78C174.02,343.137,172.073,326.054,171.282,309.283z"/>
		</g>
	</g>
</g>
<g>
</g>
<g>
</g>
<g>
</g>
<g>
</g>
<g>
</g>
<g>
</g>
<g>
</g>
<g>
</g>
<g>
</g>
<g>
</g>
<g>
</g>
<g>
</g>
<g>
</g>
<g>
</g>
<g>
</g>
</svg>
