<svg width="28" height="28" viewBox="0 0 28 28" fill="none" xmlns="http://www.w3.org/2000/svg">
<circle cx="14" cy="14" r="14" fill="#206CFF" fill-opacity="0.1"/>
<path d="M14 7C10.1402 7 7 10.1402 7 14C7 17.8598 10.1402 21 14 21C17.8598 21 21 17.8598 21 14C21 10.1402 17.8598 7 14 7ZM14 19.5263C10.9528 19.5263 8.47368 17.0472 8.47368 14C8.47368 10.9528 10.9528 8.47368 14 8.47368C17.0472 8.47368 19.5263 10.9528 19.5263 14C19.5263 17.0472 17.0472 19.5263 14 19.5263Z" fill="#206CFF"/>
<path d="M17.7577 13.7838H15.0241C14.9248 13.622 14.7882 13.4854 14.6263 13.3861V10.0999C14.6263 9.75395 14.3459 9.47354 14 9.47354C13.6541 9.47354 13.3737 9.75395 13.3737 10.0999V13.3861C13.0294 13.5974 12.7992 13.9774 12.7992 14.4101C12.7992 15.0723 13.3379 15.6109 14 15.6109C14.4328 15.6109 14.8127 15.3807 15.0241 15.0364H17.7577C18.1036 15.0364 18.384 14.756 18.384 14.4101C18.384 14.0642 18.1036 13.7838 17.7577 13.7838Z" fill="#206CFF"/>
</svg>
