<svg width="30" height="41" viewBox="0 0 30 41" fill="none" xmlns="http://www.w3.org/2000/svg">
<path d="M10.1879 37.6667H9.43785C9.35119 37.6667 9.28119 37.645 9.22785 37.6017C9.17452 37.5584 9.13452 37.5034 9.10785 37.4367L8.43785 35.7067H5.22285L4.55285 37.4367C4.52952 37.4967 4.48952 37.55 4.43285 37.5967C4.37618 37.6434 4.30618 37.6667 4.22285 37.6667H3.47285L6.33785 30.5017H7.32285L10.1879 37.6667ZM5.49285 35.0067H8.16785L7.04285 32.0917C6.96952 31.9117 6.89785 31.6867 6.82785 31.4167C6.79119 31.5534 6.75452 31.68 6.71785 31.7967C6.68452 31.91 6.65119 32.01 6.61785 32.0967L5.49285 35.0067ZM11.8747 30.3017V34.6367H12.1047C12.1714 34.6367 12.2264 34.6284 12.2697 34.6117C12.3131 34.5917 12.3614 34.5534 12.4147 34.4967L14.0147 32.7817C14.0647 32.7284 14.1147 32.685 14.1647 32.6517C14.2147 32.6184 14.2814 32.6017 14.3647 32.6017H15.1747L13.3097 34.5867C13.2631 34.6434 13.2164 34.6934 13.1697 34.7367C13.1264 34.78 13.0764 34.8184 13.0197 34.8517C13.0797 34.8917 13.1331 34.9384 13.1797 34.9917C13.2297 35.0417 13.2764 35.1 13.3197 35.1667L15.2997 37.6667H14.4997C14.4264 37.6667 14.3631 37.6534 14.3097 37.6267C14.2597 37.5967 14.2114 37.5517 14.1647 37.4917L12.4997 35.4167C12.4497 35.3467 12.3997 35.3017 12.3497 35.2817C12.2997 35.2584 12.2247 35.2467 12.1247 35.2467H11.8747V37.6667H10.9797V30.3017H11.8747ZM16.9639 32.6017V35.8317C16.9639 36.215 17.0522 36.5117 17.2289 36.7217C17.4055 36.9317 17.6722 37.0367 18.0289 37.0367C18.2889 37.0367 18.5339 36.975 18.7639 36.8517C18.9939 36.7284 19.2055 36.5567 19.3989 36.3367V32.6017H20.2889V37.6667H19.7589C19.6322 37.6667 19.5522 37.605 19.5189 37.4817L19.4489 36.9367C19.2289 37.18 18.9822 37.3767 18.7089 37.5267C18.4355 37.6734 18.1222 37.7467 17.7689 37.7467C17.4922 37.7467 17.2472 37.7017 17.0339 37.6117C16.8239 37.5184 16.6472 37.3884 16.5039 37.2217C16.3605 37.055 16.2522 36.8534 16.1789 36.6167C16.1089 36.38 16.0739 36.1184 16.0739 35.8317V32.6017H16.9639ZM21.7505 37.6667V32.6017H22.2805C22.4072 32.6017 22.4872 32.6634 22.5205 32.7867L22.5905 33.3367C22.8105 33.0934 23.0555 32.8967 23.3255 32.7467C23.5988 32.5967 23.9138 32.5217 24.2705 32.5217C24.5472 32.5217 24.7905 32.5684 25.0005 32.6617C25.2138 32.7517 25.3905 32.8817 25.5305 33.0517C25.6738 33.2184 25.7822 33.42 25.8555 33.6567C25.9288 33.8934 25.9655 34.155 25.9655 34.4417V37.6667H25.0755V34.4417C25.0755 34.0584 24.9872 33.7617 24.8105 33.5517C24.6372 33.3384 24.3705 33.2317 24.0105 33.2317C23.7472 33.2317 23.5005 33.295 23.2705 33.4217C23.0438 33.5484 22.8338 33.72 22.6405 33.9367V37.6667H21.7505Z" fill="#878787"/>
<g clip-path="url(#clip0)">
<path d="M23.6667 24V21.6667C23.6667 20.429 23.175 19.242 22.2998 18.3668C21.4247 17.4917 20.2377 17 19 17H9.66667C8.42899 17 7.242 17.4917 6.36683 18.3668C5.49166 19.242 5 20.429 5 21.6667V24" stroke="#878787" stroke-width="2" stroke-linecap="round" stroke-linejoin="round"/>
<path d="M14.3333 12.3333C16.9106 12.3333 19 10.244 19 7.66667C19 5.08934 16.9106 3 14.3333 3C11.756 3 9.66663 5.08934 9.66663 7.66667C9.66663 10.244 11.756 12.3333 14.3333 12.3333Z" stroke="#878787" stroke-width="2" stroke-linecap="round" stroke-linejoin="round"/>
</g>
<defs>
<clipPath id="clip0">
<rect width="24" height="24" fill="white" transform="translate(3)"/>
</clipPath>
</defs>
</svg>
