<svg width="30" height="42" viewBox="0 0 30 42" fill="none" xmlns="http://www.w3.org/2000/svg">
<path d="M8.12199 35.0867C8.12199 35.6234 8.03699 36.1117 7.86699 36.5517C7.69699 36.9917 7.45699 37.3684 7.14699 37.6817C6.83699 37.995 6.46533 38.2384 6.03199 38.4117C5.59866 38.5817 5.11866 38.6667 4.59199 38.6667H1.91199V31.5017H4.59199C5.11866 31.5017 5.59866 31.5884 6.03199 31.7617C6.46533 31.9317 6.83699 32.175 7.14699 32.4917C7.45699 32.805 7.69699 33.1817 7.86699 33.6217C8.03699 34.0617 8.12199 34.55 8.12199 35.0867ZM7.12699 35.0867C7.12699 34.6467 7.06699 34.2534 6.94699 33.9067C6.82699 33.56 6.65699 33.2667 6.43699 33.0267C6.21699 32.7867 5.95033 32.6034 5.63699 32.4767C5.32366 32.35 4.97533 32.2867 4.59199 32.2867H2.88699V37.8817H4.59199C4.97533 37.8817 5.32366 37.8184 5.63699 37.6917C5.95033 37.565 6.21699 37.3834 6.43699 37.1467C6.65699 36.9067 6.82699 36.6134 6.94699 36.2667C7.06699 35.92 7.12699 35.5267 7.12699 35.0867ZM11.3063 33.5217C11.6096 33.5217 11.8896 33.5734 12.1463 33.6767C12.403 33.7767 12.6246 33.9234 12.8113 34.1167C12.998 34.3067 13.143 34.5434 13.2463 34.8267C13.353 35.1067 13.4063 35.4267 13.4063 35.7867C13.4063 35.9267 13.3913 36.02 13.3613 36.0667C13.3313 36.1134 13.2746 36.1367 13.1913 36.1367H9.82129C9.82796 36.4567 9.87129 36.735 9.95129 36.9717C10.0313 37.2084 10.1413 37.4067 10.2813 37.5667C10.4213 37.7234 10.588 37.8417 10.7813 37.9217C10.9746 37.9984 11.1913 38.0367 11.4313 38.0367C11.6546 38.0367 11.8463 38.0117 12.0063 37.9617C12.1696 37.9084 12.3096 37.8517 12.4263 37.7917C12.543 37.7317 12.6396 37.6767 12.7163 37.6267C12.7963 37.5734 12.8646 37.5467 12.9213 37.5467C12.9946 37.5467 13.0513 37.575 13.0913 37.6317L13.3413 37.9567C13.2313 38.09 13.0996 38.2067 12.9463 38.3067C12.793 38.4034 12.628 38.4834 12.4513 38.5467C12.278 38.61 12.098 38.6567 11.9113 38.6867C11.7246 38.72 11.5396 38.7367 11.3563 38.7367C11.0063 38.7367 10.683 38.6784 10.3863 38.5617C10.093 38.4417 9.83796 38.2684 9.62129 38.0417C9.40796 37.8117 9.24129 37.5284 9.12129 37.1917C9.00129 36.855 8.94129 36.4684 8.94129 36.0317C8.94129 35.6784 8.99462 35.3484 9.10129 35.0417C9.21129 34.735 9.36796 34.47 9.57129 34.2467C9.77462 34.02 10.023 33.8434 10.3163 33.7167C10.6096 33.5867 10.9396 33.5217 11.3063 33.5217ZM11.3263 34.1767C10.8963 34.1767 10.558 34.3017 10.3113 34.5517C10.0646 34.7984 9.91129 35.1417 9.85129 35.5817H12.6063C12.6063 35.375 12.578 35.1867 12.5213 35.0167C12.4646 34.8434 12.3813 34.695 12.2713 34.5717C12.1613 34.445 12.0263 34.3484 11.8663 34.2817C11.7096 34.2117 11.5296 34.1767 11.3263 34.1767ZM14.5454 40.3817V33.6017H15.0754C15.2021 33.6017 15.2821 33.6634 15.3154 33.7867L15.3904 34.3867C15.6071 34.1234 15.8538 33.9117 16.1304 33.7517C16.4104 33.5917 16.7321 33.5117 17.0954 33.5117C17.3854 33.5117 17.6488 33.5684 17.8854 33.6817C18.1221 33.7917 18.3238 33.9567 18.4904 34.1767C18.6571 34.3934 18.7854 34.6634 18.8754 34.9867C18.9654 35.31 19.0104 35.6817 19.0104 36.1017C19.0104 36.475 18.9604 36.8234 18.8604 37.1467C18.7604 37.4667 18.6171 37.745 18.4304 37.9817C18.2438 38.215 18.0138 38.4 17.7404 38.5367C17.4704 38.67 17.1654 38.7367 16.8254 38.7367C16.5121 38.7367 16.2438 38.685 16.0204 38.5817C15.8004 38.4784 15.6054 38.3317 15.4354 38.1417V40.3817H14.5454ZM16.8004 34.2317C16.5104 34.2317 16.2554 34.2984 16.0354 34.4317C15.8188 34.565 15.6188 34.7534 15.4354 34.9967V37.4467C15.5988 37.6667 15.7771 37.8217 15.9704 37.9117C16.1671 38.0017 16.3854 38.0467 16.6254 38.0467C17.0954 38.0467 17.4571 37.8784 17.7104 37.5417C17.9638 37.205 18.0904 36.725 18.0904 36.1017C18.0904 35.7717 18.0604 35.4884 18.0004 35.2517C17.9438 35.015 17.8604 34.8217 17.7504 34.6717C17.6404 34.5184 17.5054 34.4067 17.3454 34.3367C17.1854 34.2667 17.0038 34.2317 16.8004 34.2317ZM23.783 38.6667H23.388C23.3013 38.6667 23.2313 38.6534 23.178 38.6267C23.1247 38.6 23.0897 38.5434 23.073 38.4567L22.973 37.9867C22.8397 38.1067 22.7097 38.215 22.583 38.3117C22.4563 38.405 22.323 38.485 22.183 38.5517C22.043 38.615 21.893 38.6634 21.733 38.6967C21.5763 38.73 21.4013 38.7467 21.208 38.7467C21.0113 38.7467 20.8263 38.72 20.653 38.6667C20.483 38.61 20.3347 38.5267 20.208 38.4167C20.0813 38.3067 19.9797 38.1684 19.903 38.0017C19.8297 37.8317 19.793 37.6317 19.793 37.4017C19.793 37.2017 19.848 37.01 19.958 36.8267C20.068 36.64 20.2447 36.475 20.488 36.3317C20.7347 36.1884 21.0563 36.0717 21.453 35.9817C21.8497 35.8884 22.3347 35.835 22.908 35.8217V35.4267C22.908 35.0334 22.823 34.7367 22.653 34.5367C22.4863 34.3334 22.238 34.2317 21.908 34.2317C21.6913 34.2317 21.508 34.26 21.358 34.3167C21.2113 34.37 21.083 34.4317 20.973 34.5017C20.8663 34.5684 20.773 34.63 20.693 34.6867C20.6163 34.74 20.5397 34.7667 20.463 34.7667C20.403 34.7667 20.3497 34.7517 20.303 34.7217C20.2597 34.6884 20.2247 34.6484 20.198 34.6017L20.038 34.3167C20.318 34.0467 20.6197 33.845 20.943 33.7117C21.2663 33.5784 21.6247 33.5117 22.018 33.5117C22.3013 33.5117 22.553 33.5584 22.773 33.6517C22.993 33.745 23.178 33.875 23.328 34.0417C23.478 34.2084 23.5913 34.41 23.668 34.6467C23.7447 34.8834 23.783 35.1434 23.783 35.4267V38.6667ZM21.473 38.1217C21.6297 38.1217 21.773 38.1067 21.903 38.0767C22.033 38.0434 22.1547 37.9984 22.268 37.9417C22.3847 37.8817 22.4947 37.81 22.598 37.7267C22.7047 37.6434 22.808 37.5484 22.908 37.4417V36.3867C22.498 36.4 22.1497 36.4334 21.863 36.4867C21.5763 36.5367 21.343 36.6034 21.163 36.6867C20.983 36.77 20.8513 36.8684 20.768 36.9817C20.688 37.095 20.648 37.2217 20.648 37.3617C20.648 37.495 20.6697 37.61 20.713 37.7067C20.7563 37.8034 20.8147 37.8834 20.888 37.9467C20.9613 38.0067 21.048 38.0517 21.148 38.0817C21.248 38.1084 21.3563 38.1217 21.473 38.1217ZM25.1314 38.6667V33.6017H25.6614C25.788 33.6017 25.868 33.6634 25.9014 33.7867L25.9714 34.3367C26.1914 34.0934 26.4364 33.8967 26.7064 33.7467C26.9797 33.5967 27.2947 33.5217 27.6514 33.5217C27.928 33.5217 28.1714 33.5684 28.3814 33.6617C28.5947 33.7517 28.7714 33.8817 28.9114 34.0517C29.0547 34.2184 29.163 34.42 29.2364 34.6567C29.3097 34.8934 29.3464 35.155 29.3464 35.4417V38.6667H28.4564V35.4417C28.4564 35.0584 28.368 34.7617 28.1914 34.5517C28.018 34.3384 27.7514 34.2317 27.3914 34.2317C27.128 34.2317 26.8814 34.295 26.6514 34.4217C26.4247 34.5484 26.2147 34.72 26.0214 34.9367V38.6667H25.1314Z" fill="#206CFF"/>
<path d="M4.5 9.16667L15 1L25.5 9.16667V22C25.5 22.6188 25.2542 23.2123 24.8166 23.6499C24.379 24.0875 23.7855 24.3333 23.1667 24.3333H6.83333C6.21449 24.3333 5.621 24.0875 5.18342 23.6499C4.74583 23.2123 4.5 22.6188 4.5 22V9.16667Z" stroke="#206CFF" stroke-width="2" stroke-linecap="round" stroke-linejoin="round"/>
<path d="M11.5 24.3334V12.6667H18.5V24.3334" stroke="#206CFF" stroke-width="2" stroke-linecap="round" stroke-linejoin="round"/>
</svg>
