<svg width="25" height="34" viewBox="0 0 25 34" fill="none" xmlns="http://www.w3.org/2000/svg">
<ellipse cx="12.2043" cy="12" rx="12.2043" ry="12" fill="black" fill-opacity="0.12"/>
<path d="M12.2017 6C9.39992 6 7.11919 8.24255 7.11919 10.9974C7.11919 11.311 7.14843 11.6273 7.20957 11.9357C7.21222 11.954 7.22286 12.0089 7.24412 12.103C7.32121 12.4401 7.43551 12.7721 7.58437 13.0883C8.13196 14.356 9.33613 16.3032 11.9784 18.3889C12.0448 18.4412 12.1246 18.4673 12.2043 18.4673C12.2841 18.4673 12.3638 18.4412 12.4303 18.3889C15.0699 16.3032 16.2767 14.356 16.8243 13.0883C16.9731 12.7721 17.0874 12.4428 17.1645 12.103C17.1858 12.0089 17.1964 11.954 17.1991 11.9357C17.2576 11.6273 17.2895 11.311 17.2895 10.9974C17.2842 8.24255 15.0034 6 12.2017 6ZM16.4867 11.8129C16.4867 11.8181 16.484 11.8233 16.484 11.8285C16.4814 11.8416 16.4734 11.8808 16.4601 11.9409C16.4601 11.9435 16.4601 11.9435 16.4601 11.9462C16.3937 12.2389 16.2953 12.5238 16.1651 12.7982C16.1624 12.8008 16.1624 12.8061 16.1597 12.8087C15.6627 13.9665 14.5728 15.7334 12.2017 17.6597C9.83055 15.7334 8.74069 13.9665 8.24361 12.8087C8.24095 12.8061 8.24095 12.8008 8.23829 12.7982C8.1107 12.5264 8.01234 12.2389 7.94323 11.9462C7.94323 11.9435 7.94323 11.9435 7.94323 11.9409C7.92728 11.8808 7.92196 11.8416 7.91931 11.8285C7.91931 11.8233 7.91665 11.8181 7.91665 11.8102C7.86348 11.541 7.8369 11.2692 7.8369 10.9948C7.8369 8.62938 9.796 6.70308 12.2017 6.70308C14.6073 6.70308 16.5664 8.62938 16.5664 10.9948C16.5664 11.2718 16.5399 11.5463 16.4867 11.8129Z" fill="black" fill-opacity="0.6"/>
<path d="M12.2017 7.87924C10.4233 7.87924 8.97462 9.30371 8.97462 11.0523C8.97462 12.8008 10.4233 14.2253 12.2017 14.2253C13.98 14.2253 15.4287 12.8008 15.4287 11.0523C15.4287 9.30371 13.98 7.87924 12.2017 7.87924ZM12.2017 13.5196C10.8168 13.5196 9.69234 12.4114 9.69234 11.0523C9.69234 9.69315 10.8194 8.58494 12.2017 8.58494C13.5839 8.58494 14.711 9.69315 14.711 11.0523C14.711 12.4114 13.5866 13.5196 12.2017 13.5196Z" fill="black" fill-opacity="0.6"/>
<path d="M2.55547 31.456H3.78747V27.548C3.78747 27.4307 3.79147 27.312 3.79947 27.192L2.77547 28.068C2.7488 28.0893 2.72213 28.1053 2.69547 28.116C2.6688 28.124 2.64347 28.128 2.61947 28.128C2.57947 28.128 2.54347 28.12 2.51147 28.104C2.47947 28.0853 2.45547 28.064 2.43947 28.04L2.21547 27.732L3.91947 26.256H4.49947V31.456H5.62747V32H2.55547V31.456ZM8.64809 28.488C8.87742 28.488 9.09476 28.5267 9.30009 28.604C9.50542 28.6787 9.68542 28.7893 9.84009 28.936C9.99476 29.08 10.1174 29.2587 10.2081 29.472C10.2988 29.6827 10.3441 29.924 10.3441 30.196C10.3441 30.46 10.2961 30.7053 10.2001 30.932C10.1041 31.1587 9.96942 31.356 9.79609 31.524C9.62542 31.692 9.41876 31.824 9.17609 31.92C8.93342 32.016 8.66676 32.064 8.37609 32.064C8.08809 32.064 7.82676 32.0187 7.59209 31.928C7.36009 31.8347 7.16142 31.704 6.99609 31.536C6.83076 31.3653 6.70276 31.16 6.61209 30.92C6.52409 30.6773 6.48009 30.4067 6.48009 30.108C6.48009 29.8573 6.53609 29.5907 6.64809 29.308C6.76009 29.0253 6.93742 28.7213 7.18009 28.396L8.63209 26.44C8.66942 26.392 8.72142 26.352 8.78809 26.32C8.85476 26.2853 8.93076 26.268 9.01609 26.268H9.64809L7.66009 28.784C7.79609 28.6907 7.94676 28.6187 8.11209 28.568C8.27742 28.5147 8.45609 28.488 8.64809 28.488ZM7.16809 30.232C7.16809 30.416 7.19476 30.584 7.24809 30.736C7.30142 30.888 7.37876 31.0187 7.48009 31.128C7.58409 31.2373 7.70942 31.3227 7.85609 31.384C8.00542 31.4427 8.17476 31.472 8.36409 31.472C8.55609 31.472 8.72942 31.4413 8.88409 31.38C9.03876 31.3187 9.17076 31.2333 9.28009 31.124C9.39209 31.0147 9.47742 30.8853 9.53609 30.736C9.59742 30.5867 9.62809 30.424 9.62809 30.248C9.62809 30.0613 9.59876 29.8933 9.54009 29.744C9.48142 29.592 9.39876 29.464 9.29209 29.36C9.18542 29.2533 9.05742 29.172 8.90809 29.116C8.75876 29.06 8.59476 29.032 8.41609 29.032C8.22409 29.032 8.05076 29.0653 7.89609 29.132C7.74142 29.196 7.60942 29.284 7.50009 29.396C7.39342 29.5053 7.31076 29.6333 7.25209 29.78C7.19609 29.924 7.16809 30.0747 7.16809 30.232ZM13.5596 26.108V29.576H13.7436C13.7969 29.576 13.8409 29.5693 13.8756 29.556C13.9103 29.54 13.9489 29.5093 13.9916 29.464L15.2716 28.092C15.3116 28.0493 15.3516 28.0147 15.3916 27.988C15.4316 27.9613 15.4849 27.948 15.5516 27.948H16.1996L14.7076 29.536C14.6703 29.5813 14.6329 29.6213 14.5956 29.656C14.5609 29.6907 14.5209 29.7213 14.4756 29.748C14.5236 29.78 14.5663 29.8173 14.6036 29.86C14.6436 29.9 14.6809 29.9467 14.7156 30L16.2996 32H15.6596C15.6009 32 15.5503 31.9893 15.5076 31.968C15.4676 31.944 15.4289 31.908 15.3916 31.86L14.0596 30.2C14.0196 30.144 13.9796 30.108 13.9396 30.092C13.8996 30.0733 13.8396 30.064 13.7596 30.064H13.5596V32H12.8436V26.108H13.5596ZM17.0149 32V27.948H17.4389C17.5402 27.948 17.6042 27.9973 17.6309 28.096L17.6829 28.512C17.8322 28.328 17.9989 28.1773 18.1829 28.06C18.3696 27.9427 18.5856 27.884 18.8309 27.884C19.1056 27.884 19.3269 27.96 19.4949 28.112C19.6656 28.264 19.7882 28.4693 19.8629 28.728C19.9189 28.5813 19.9922 28.4547 20.0829 28.348C20.1762 28.2413 20.2802 28.1533 20.3949 28.084C20.5096 28.0147 20.6309 27.964 20.7589 27.932C20.8896 27.9 21.0216 27.884 21.1549 27.884C21.3682 27.884 21.5576 27.9187 21.7229 27.988C21.8909 28.0547 22.0322 28.1533 22.1469 28.284C22.2642 28.4147 22.3536 28.576 22.4149 28.768C22.4762 28.9573 22.5069 29.1747 22.5069 29.42V32H21.7949V29.42C21.7949 29.1027 21.7256 28.8627 21.5869 28.7C21.4482 28.5347 21.2469 28.452 20.9829 28.452C20.8656 28.452 20.7536 28.4733 20.6469 28.516C20.5429 28.556 20.4509 28.616 20.3709 28.696C20.2909 28.776 20.2269 28.8773 20.1789 29C20.1336 29.12 20.1109 29.26 20.1109 29.42V32H19.3989V29.42C19.3989 29.0947 19.3336 28.852 19.2029 28.692C19.0722 28.532 18.8816 28.452 18.6309 28.452C18.4549 28.452 18.2909 28.5 18.1389 28.596C17.9896 28.6893 17.8522 28.8173 17.7269 28.98V32H17.0149Z" fill="#878787"/>
</svg>
