<svg width="25" height="24" viewBox="0 0 25 24" fill="none" xmlns="http://www.w3.org/2000/svg">
<ellipse cx="12.2043" cy="12" rx="12.2043" ry="12" fill="black" fill-opacity="0.12"/>
<path d="M12.2017 6C9.39994 6 7.1192 8.24255 7.1192 10.9974C7.1192 11.311 7.14844 11.6273 7.20958 11.9357C7.21224 11.954 7.22287 12.0089 7.24414 12.103C7.32123 12.4401 7.43553 12.7721 7.58439 13.0883C8.13198 14.356 9.33614 16.3032 11.9784 18.3889C12.0449 18.4412 12.1246 18.4673 12.2043 18.4673C12.2841 18.4673 12.3638 18.4412 12.4303 18.3889C15.0699 16.3032 16.2767 14.356 16.8243 13.0883C16.9732 12.7721 17.0875 12.4428 17.1646 12.103C17.1858 12.0089 17.1964 11.954 17.1991 11.9357C17.2576 11.6273 17.2895 11.311 17.2895 10.9974C17.2842 8.24255 15.0034 6 12.2017 6ZM16.4867 11.8129C16.4867 11.8181 16.4841 11.8233 16.4841 11.8285C16.4814 11.8416 16.4734 11.8808 16.4601 11.9409C16.4601 11.9435 16.4601 11.9435 16.4601 11.9462C16.3937 12.2389 16.2953 12.5238 16.1651 12.7982C16.1624 12.8008 16.1624 12.8061 16.1597 12.8087C15.6627 13.9665 14.5728 15.7334 12.2017 17.6597C9.83057 15.7334 8.74071 13.9665 8.24362 12.8087C8.24096 12.8061 8.24096 12.8008 8.23831 12.7982C8.11071 12.5264 8.01236 12.2389 7.94324 11.9462C7.94324 11.9435 7.94324 11.9435 7.94324 11.9409C7.9273 11.8808 7.92198 11.8416 7.91932 11.8285C7.91932 11.8233 7.91666 11.8181 7.91666 11.8102C7.8635 11.541 7.83692 11.2692 7.83692 10.9948C7.83692 8.62938 9.79601 6.70308 12.2017 6.70308C14.6074 6.70308 16.5665 8.62938 16.5665 10.9948C16.5665 11.2718 16.5399 11.5463 16.4867 11.8129Z" fill="black" fill-opacity="0.6"/>
<path d="M12.2017 7.87927C10.4233 7.87927 8.97462 9.30374 8.97462 11.0523C8.97462 12.8009 10.4233 14.2253 12.2017 14.2253C13.98 14.2253 15.4287 12.8009 15.4287 11.0523C15.4287 9.30374 13.98 7.87927 12.2017 7.87927ZM12.2017 13.5196C10.8168 13.5196 9.69234 12.4114 9.69234 11.0523C9.69234 9.69318 10.8194 8.58497 12.2017 8.58497C13.5839 8.58497 14.711 9.69318 14.711 11.0523C14.711 12.4114 13.5866 13.5196 12.2017 13.5196Z" fill="black" fill-opacity="0.6"/>
</svg>
