<svg width="16" height="20" viewBox="0 0 16 20" fill="none" xmlns="http://www.w3.org/2000/svg">
<path d="M15.535 7.7675C15.535 13.9872 8.51352 19.7475 8.51352 19.7475C8.10325 20.0842 7.4318 20.0842 7.02153 19.7475C7.02153 19.7475 0 13.9872 0 7.7675C7.8125e-05 3.47762 3.4777 0 7.76754 0C12.0574 0 15.535 3.47762 15.535 7.7675Z" fill="#EE3840"/>
<path d="M7.76753 11.6754C5.61269 11.6754 3.85968 9.92232 3.85968 7.76755C3.85968 5.61278 5.61277 3.85962 7.76753 3.85962C9.9223 3.85962 11.6754 5.61271 11.6754 7.76747C11.6754 9.92224 9.92238 11.6754 7.76753 11.6754Z" fill="#FFE1D6"/>
</svg>
