<svg width="12" height="14" viewBox="0 0 12 14" fill="none" xmlns="http://www.w3.org/2000/svg">
<path d="M5.7073 0C2.56112 0 0 2.51824 0 5.61174C0 5.96394 0.0328348 6.31908 0.10149 6.66541C0.104475 6.68595 0.116415 6.74759 0.140295 6.85325C0.226859 7.23187 0.355214 7.60461 0.522373 7.95975C1.13728 9.38323 2.48948 11.5698 5.45656 13.912C5.53118 13.9707 5.62073 14 5.71028 14C5.79983 14 5.88938 13.9707 5.96401 13.912C8.9281 11.5698 10.2833 9.38323 10.8982 7.95975C11.0654 7.60461 11.1937 7.2348 11.2803 6.85325C11.3042 6.74759 11.3161 6.68595 11.3191 6.66541C11.3847 6.31908 11.4206 5.96394 11.4206 5.61174C11.4146 2.51824 8.85348 0 5.7073 0ZM10.5191 6.52746C10.5191 6.53333 10.5161 6.5392 10.5161 6.54507C10.5131 6.55975 10.5042 6.60377 10.4893 6.67128C10.4893 6.67421 10.4893 6.67421 10.4893 6.67715C10.4146 7.00587 10.3042 7.32579 10.1579 7.63396C10.1549 7.6369 10.1549 7.64277 10.1519 7.6457C9.59375 8.94591 8.36991 10.93 5.7073 13.0931C3.04469 10.93 1.82084 8.94591 1.26265 7.6457C1.25967 7.64277 1.25967 7.6369 1.25668 7.63396C1.1134 7.32872 1.00296 7.00587 0.925346 6.67715C0.925346 6.67421 0.925346 6.67421 0.925346 6.67128C0.907436 6.60377 0.901467 6.55975 0.898482 6.54507C0.898482 6.5392 0.895497 6.53333 0.895497 6.52453C0.835797 6.22222 0.805947 5.91698 0.805947 5.60881C0.805947 2.95262 3.00588 0.789518 5.7073 0.789518C8.40871 0.789518 10.6087 2.95262 10.6087 5.60881C10.6087 5.91992 10.5788 6.22809 10.5191 6.52746Z" fill="black" fill-opacity="0.6"/>
<path d="M5.70733 2.11026C3.71038 2.11026 2.08356 3.70984 2.08356 5.67336C2.08356 7.63689 3.71038 9.23647 5.70733 9.23647C7.70429 9.23647 9.33111 7.63689 9.33111 5.67336C9.33111 3.70984 7.70429 2.11026 5.70733 2.11026ZM5.70733 8.44401C4.15215 8.44401 2.8895 7.19957 2.8895 5.67336C2.8895 4.14716 4.15514 2.90271 5.70733 2.90271C7.25953 2.90271 8.52516 4.14716 8.52516 5.67336C8.52516 7.19957 7.26251 8.44401 5.70733 8.44401Z" fill="black" fill-opacity="0.6"/>
</svg>
