<svg width="25" height="23" viewBox="0 0 25 23" fill="none" xmlns="http://www.w3.org/2000/svg">
<path d="M18.5 9C18.5 7.80653 18.0259 6.66193 17.182 5.81802C16.3381 4.97411 15.1935 4.5 14 4.5C12.8065 4.5 11.6619 4.97411 10.818 5.81802C9.97411 6.66193 9.5 7.80653 9.5 9C9.5 14.25 7.25 15.75 7.25 15.75H20.75C20.75 15.75 18.5 14.25 18.5 9Z" stroke="black" stroke-width="2" stroke-linecap="round" stroke-linejoin="round"/>
<path d="M15.2975 18.75C15.1657 18.9773 14.9764 19.166 14.7487 19.2971C14.521 19.4283 14.2628 19.4973 14 19.4973C13.7372 19.4973 13.4791 19.4283 13.2513 19.2971C13.0236 19.166 12.8344 18.9773 12.7025 18.75" stroke="black" stroke-width="2" stroke-linecap="round" stroke-linejoin="round"/>
<circle cx="7" cy="7" r="7" fill="white"/>
<circle cx="7" cy="7" r="6" fill="#CF212A"/>
<path d="M5.61075 9V4.464H4.88275C4.78475 4.94 4.33675 5.304 3.68575 5.318V5.892H4.78475V9H5.61075ZM7.32427 6.732C7.32427 6.158 7.42227 5.717 7.64627 5.437C7.80027 5.234 8.01727 5.101 8.34627 5.101C8.67527 5.101 8.88527 5.234 9.04627 5.437C9.26327 5.717 9.36127 6.158 9.36127 6.732C9.36127 7.306 9.26327 7.747 9.04627 8.027C8.88527 8.23 8.67527 8.363 8.34627 8.363C8.01727 8.363 7.80027 8.23 7.64627 8.027C7.42927 7.747 7.32427 7.306 7.32427 6.732ZM6.49127 6.732C6.49127 7.334 6.58927 7.901 6.89727 8.363C7.19127 8.804 7.66727 9.105 8.34627 9.105C9.02527 9.105 9.49427 8.804 9.78827 8.363C10.0963 7.901 10.1943 7.334 10.1943 6.732C10.1943 6.13 10.0963 5.563 9.78827 5.101C9.49427 4.66 9.02527 4.359 8.34627 4.359C7.66727 4.359 7.19127 4.66 6.89727 5.101C6.58927 5.563 6.49127 6.13 6.49127 6.732Z" fill="white"/>
</svg>
