<svg xmlns="http://www.w3.org/2000/svg" xmlns:xlink="http://www.w3.org/1999/xlink" viewBox="0 0 376 257"><defs><linearGradient id="linear-gradient" x1="9730.94913" y1="129.18945" x2="10045.54169" y2="129.18945" gradientTransform="matrix(-1, 0, 0, 1, 10076.18854, 0)" gradientUnits="userSpaceOnUse"><stop offset="0.0012" stop-color="#283a52"/><stop offset="1" stop-color="#354f6e"/></linearGradient><linearGradient id="linear-gradient-2" x1="9738.56717" y1="181.43875" x2="9740.28916" y2="181.43875" xlink:href="#linear-gradient"/><linearGradient id="linear-gradient-3" x1="9743.09042" y1="183.98035" x2="9744.81241" y2="183.98035" xlink:href="#linear-gradient"/><linearGradient id="linear-gradient-4" x1="9747.5884" y1="186.51424" x2="9749.31039" y2="186.51424" xlink:href="#linear-gradient"/><linearGradient id="linear-gradient-5" x1="9751.64263" y1="188.96367" x2="9753.36462" y2="188.96367" xlink:href="#linear-gradient"/><linearGradient id="linear-gradient-6" x1="9755.65462" y1="191.50568" x2="9757.37661" y2="191.50568" xlink:href="#linear-gradient"/><linearGradient id="linear-gradient-7" x1="9763.51636" y1="197.99115" x2="9772.67662" y2="197.99115" xlink:href="#linear-gradient"/><linearGradient id="linear-gradient-8" x1="9785.49793" y1="208.70017" x2="9787.21992" y2="208.70017" xlink:href="#linear-gradient"/><linearGradient id="linear-gradient-9" x1="9790.02118" y1="211.24177" x2="9791.74317" y2="211.24177" xlink:href="#linear-gradient"/><linearGradient id="linear-gradient-10" x1="9794.51916" y1="213.77566" x2="9796.24115" y2="213.77566" xlink:href="#linear-gradient"/><linearGradient id="linear-gradient-11" x1="9798.57339" y1="216.22509" x2="9800.29537" y2="216.22509" xlink:href="#linear-gradient"/><linearGradient id="linear-gradient-12" x1="9802.58538" y1="218.7671" x2="9804.30737" y2="218.7671" xlink:href="#linear-gradient"/><linearGradient id="linear-gradient-13" x1="9774.00158" y1="181.54451" x2="9802.61197" y2="181.54451" xlink:href="#linear-gradient"/></defs><title>Phone number masking</title><g id="Layer_2" data-name="Layer 2"><g id="Layer_1-2" data-name="Layer 1"><rect width="376" height="257" fill="none"/><ellipse cx="192.25292" cy="159.15665" rx="150.8592" ry="67.55615" fill="#ebf4ff"/><path d="M233.95291,227.88627,33.57444,112.85672a8.43572,8.43572,0,0,1-.01627-14.624l76.26691-43.99045a32.59807,32.59807,0,0,1,32.5-.0429l200.1985,114.81518a8.43572,8.43572,0,0,1,.0429,14.612L266.55581,227.7973A32.59807,32.59807,0,0,1,233.95291,227.88627Z" fill="#c0d4ef"/><circle cx="40.73132" cy="99.97967" r="14.62702" fill="#c0d4ef"/><circle cx="335.26868" cy="170.76365" r="14.62702" fill="#c0d4ef"/><path d="M233.95291,216.8663,33.57444,101.83675a8.43572,8.43572,0,0,1-.01627-14.624l76.26691-43.99045a32.59807,32.59807,0,0,1,32.5-.0429L342.52356,157.9946a8.43572,8.43572,0,0,1,.0429,14.612l-76.01066,44.17068A32.59807,32.59807,0,0,1,233.95291,216.8663Z" fill="#476a91"/><path d="M233.918,215.24985,34.82807,101.00528A8.32434,8.32434,0,0,1,34.812,86.5744L110.072,43.16476a32.16768,32.16768,0,0,1,32.07088-.04234l198.91234,114.033a8.32434,8.32434,0,0,1,.04234,14.41912l-75.00707,43.58749A32.16768,32.16768,0,0,1,233.918,215.24985Z" fill="url(#linear-gradient)"/><polygon points="219.998 201.098 52.458 107.273 146.863 52.821 314.149 146.386 219.998 201.098" fill="#ebf4ff"/><path d="M337.52511,183.166h0c-.70458.60443-1.62565-.07932-1.62565-1.20678h0a2.97873,2.97873,0,0,1,.91435-2.24754h0c.70458-.60443,1.62565.07931,1.62565,1.20678h0A2.97873,2.97873,0,0,1,337.52511,183.166Z" fill="#8aa9d6"/><path d="M336.81376,179.7117v-.00016c.0573-.04914.11966-.04065.17925-.07314a1.46107,1.46107,0,0,1,.62836,1.28006,2.97865,2.97865,0,0,1-.91438,2.2475c-.0573.04914-.11966.04065-.17925.07314a1.46113,1.46113,0,0,1-.62836-1.2799A2.97839,2.97839,0,0,1,336.81376,179.7117Z" fill="url(#linear-gradient-2)"/><path d="M333.00185,185.70759h0c-.70458.60443-1.62565-.07931-1.62565-1.20678h0a2.97873,2.97873,0,0,1,.91435-2.24754h0c.70458-.60443,1.62565.07931,1.62565,1.20678h0A2.97873,2.97873,0,0,1,333.00185,185.70759Z" fill="#8aa9d6"/><path d="M332.29051,182.2533v-.00016c.0573-.04914.11966-.04065.17925-.07314a1.46107,1.46107,0,0,1,.62836,1.28006,2.97865,2.97865,0,0,1-.91438,2.2475c-.0573.04914-.11966.04065-.17925.07314a1.46113,1.46113,0,0,1-.62836-1.2799A2.97839,2.97839,0,0,1,332.29051,182.2533Z" fill="url(#linear-gradient-3)"/><path d="M328.50387,188.24148h0c-.70458.60443-1.62565-.07932-1.62565-1.20678h0a2.97873,2.97873,0,0,1,.91435-2.24754h0c.70458-.60443,1.62565.07932,1.62565,1.20678h0A2.97873,2.97873,0,0,1,328.50387,188.24148Z" fill="#8aa9d6"/><path d="M327.79253,184.78719V184.787c.0573-.04914.11966-.04065.17925-.07314a1.46107,1.46107,0,0,1,.62836,1.28006,2.97865,2.97865,0,0,1-.91438,2.2475c-.0573.04914-.11966.04065-.17925.07314a1.46113,1.46113,0,0,1-.62836-1.2799A2.97839,2.97839,0,0,1,327.79253,184.78719Z" fill="url(#linear-gradient-4)"/><path d="M324.44965,190.6909h0c-.70458.60443-1.62565-.07931-1.62565-1.20678h0a2.97873,2.97873,0,0,1,.91435-2.24754h0c.70458-.60443,1.62565.07931,1.62565,1.20678h0A2.97873,2.97873,0,0,1,324.44965,190.6909Z" fill="#8aa9d6"/><path d="M323.7383,187.23662v-.00016c.0573-.04914.11966-.04065.17925-.07314a1.46107,1.46107,0,0,1,.62836,1.28006,2.97865,2.97865,0,0,1-.91438,2.2475c-.0573.04914-.11966.04065-.17925.07314a1.46113,1.46113,0,0,1-.62836-1.2799A2.97839,2.97839,0,0,1,323.7383,187.23662Z" fill="url(#linear-gradient-5)"/><path d="M320.43766,193.23291h0c-.70458.60443-1.62565-.07932-1.62565-1.20678h0a2.97873,2.97873,0,0,1,.91435-2.24754h0c.70458-.60443,1.62565.07932,1.62565,1.20678h0A2.97873,2.97873,0,0,1,320.43766,193.23291Z" fill="#8aa9d6"/><path d="M319.72631,189.77863v-.00016c.0573-.04914.11966-.04065.17925-.07314a1.46107,1.46107,0,0,1,.62836,1.28006,2.97865,2.97865,0,0,1-.91438,2.2475c-.0573.04914-.11966.04065-.17925.07314a1.46113,1.46113,0,0,1-.62836-1.2799A2.97839,2.97839,0,0,1,319.72631,189.77863Z" fill="url(#linear-gradient-6)"/><path d="M304.42624,198.85832a.9438.9438,0,0,1,.13232-.08168l-.00171-.01415,7.54715-4.71177.00171.01432c.68344-.42937,1.49783.2244,1.49783,1.28571a2.978,2.978,0,0,1-.91432,2.24743.92433.92433,0,0,1-.12755.07878l.00171.01432L305.02,202.4005l-.00171-.01432c-.68514.44045-1.50636-.21451-1.50636-1.28025A2.97865,2.97865,0,0,1,304.42624,198.85832Z" fill="#8aa9d6"/><path d="M304.42624,198.85832a.9438.9438,0,0,1,.13232-.08168l-.00171-.01415,7.54715-4.71177.00171.01432c.68344-.42937,1.49783.2244,1.49783,1.28571a2.978,2.978,0,0,1-.91432,2.24743.92433.92433,0,0,1-.12755.07878l.00171.01432L305.02,202.4005l-.00171-.01432c-.68514.44045-1.50636-.21451-1.50636-1.28025A2.97865,2.97865,0,0,1,304.42624,198.85832Z" fill="#8aa9d6"/><path d="M303.51192,201.10592a2.97865,2.97865,0,0,1,.91432-2.2476.9438.9438,0,0,1,.13232-.08168l-.00171-.01415,7.54715-4.71177.00171.01432a.84354.84354,0,0,1,.30625-.11476,1.6892,1.6892,0,0,1,.26021.92694,2.978,2.978,0,0,1-.91432,2.24743.92433.92433,0,0,1-.12755.07878l.00171.01432-7.5434,4.70921-.00171-.01432a.84762.84762,0,0,1-.31478.11936A1.68664,1.68664,0,0,1,303.51192,201.10592Z" fill="url(#linear-gradient-7)"/><path d="M290.59435,210.4274h0c-.70458.60443-1.62565-.07932-1.62565-1.20678h0a2.97873,2.97873,0,0,1,.91435-2.24754h0c.70458-.60443,1.62565.07932,1.62565,1.20678h0A2.97873,2.97873,0,0,1,290.59435,210.4274Z" fill="#8aa9d6"/><path d="M289.883,206.97312V206.973c.0573-.04914.11966-.04065.17925-.07314a1.46107,1.46107,0,0,1,.62836,1.28006,2.97865,2.97865,0,0,1-.91438,2.2475c-.0573.04914-.11966.04065-.17925.07314a1.46113,1.46113,0,0,1-.62836-1.2799A2.97839,2.97839,0,0,1,289.883,206.97312Z" fill="url(#linear-gradient-8)"/><path d="M286.07109,212.969h0c-.70458.60443-1.62565-.07931-1.62565-1.20678h0a2.97873,2.97873,0,0,1,.91435-2.24754h0c.70458-.60443,1.62565.07932,1.62565,1.20678h0A2.97873,2.97873,0,0,1,286.07109,212.969Z" fill="#8aa9d6"/><path d="M285.35975,209.51472v-.00016c.0573-.04914.11966-.04065.17925-.07314a1.46107,1.46107,0,0,1,.62836,1.28006,2.97865,2.97865,0,0,1-.91438,2.2475c-.0573.04914-.11966.04065-.17925.07314a1.46113,1.46113,0,0,1-.62836-1.2799A2.97839,2.97839,0,0,1,285.35975,209.51472Z" fill="url(#linear-gradient-9)"/><path d="M281.57311,215.5029h0c-.70458.60443-1.62565-.07931-1.62565-1.20678h0a2.97873,2.97873,0,0,1,.91435-2.24754h0c.70458-.60443,1.62565.07932,1.62565,1.20678h0A2.97873,2.97873,0,0,1,281.57311,215.5029Z" fill="#8aa9d6"/><path d="M280.86177,212.04861v-.00016c.0573-.04914.11966-.04065.17925-.07314a1.46107,1.46107,0,0,1,.62836,1.28006,2.97865,2.97865,0,0,1-.91438,2.2475c-.0573.04914-.11966.04065-.17925.07314a1.46113,1.46113,0,0,1-.62836-1.2799A2.97839,2.97839,0,0,1,280.86177,212.04861Z" fill="url(#linear-gradient-10)"/><path d="M277.51889,217.95232h0c-.70458.60443-1.62565-.07931-1.62565-1.20678h0a2.97873,2.97873,0,0,1,.91435-2.24754h0c.70458-.60443,1.62565.07931,1.62565,1.20678h0A2.97873,2.97873,0,0,1,277.51889,217.95232Z" fill="#8aa9d6"/><path d="M276.80754,214.498v-.00016c.0573-.04914.11966-.04065.17925-.07314a1.46107,1.46107,0,0,1,.62836,1.28006,2.97865,2.97865,0,0,1-.91438,2.2475c-.0573.04914-.11966.04065-.17925.07314a1.46113,1.46113,0,0,1-.62836-1.2799A2.97839,2.97839,0,0,1,276.80754,214.498Z" fill="url(#linear-gradient-11)"/><path d="M273.5069,220.49433h0c-.70458.60443-1.62565-.07932-1.62565-1.20678h0a2.97873,2.97873,0,0,1,.91435-2.24754h0c.70458-.60443,1.62565.07931,1.62565,1.20678h0A2.97873,2.97873,0,0,1,273.5069,220.49433Z" fill="#8aa9d6"/><path d="M272.79555,217.04v-.00016c.0573-.04914.11966-.04065.17925-.07314a1.46107,1.46107,0,0,1,.62836,1.28006,2.97865,2.97865,0,0,1-.91438,2.2475c-.0573.04914-.11966.04065-.17925.07314a1.46113,1.46113,0,0,1-.62836-1.2799A2.97839,2.97839,0,0,1,272.79555,217.04Z" fill="url(#linear-gradient-12)"/><polygon points="220.091 219.929 223.379 221.816 223.379 210.796 220.091 208.909 220.091 219.929" fill="#83a3dc"/><polygon points="45.59 119.757 48.878 121.644 48.878 110.624 45.59 108.737 45.59 119.757" fill="#83a3dc"/><ellipse cx="287.88177" cy="181.54451" rx="15.57681" ry="7.16595" fill="#aac5ef"/><ellipse cx="287.88177" cy="181.54451" rx="14.3052" ry="6.406" fill="url(#linear-gradient-13)"/><path d="M80.17139,75.25623l-.01974-.02351a.92512.92512,0,0,1-.00178-1.60376L94.7998,65.12753a3.57492,3.57492,0,0,1,3.56416-.00471h0a.92512.92512,0,0,1,.00471,1.60245l-14.62183,8.5212A3.57492,3.57492,0,0,1,80.17139,75.25623Z" fill="#2a3d56"/><rect x="129.63813" y="99.17039" width="108.32848" height="32.04504" fill="#a6b3ff"/><ellipse cx="183.80237" cy="130.03901" rx="54.16424" ry="24.25525" fill="#a6b3ff"/><ellipse cx="183.80237" cy="99.17039" rx="54.16424" ry="24.25525" fill="#8d9bff"/><path d="M182.81923,24.78936a21.25671,21.25671,0,0,0-21.25684,21.25672V60.95746H172.3946a1.59154,1.59154,0,0,1-1.59174-1.59163V45.7526a12.01637,12.01637,0,1,1,24.03275,0V59.36583a1.59154,1.59154,0,0,1-1.59174,1.59163h10.83221V46.04609A21.25671,21.25671,0,0,0,182.81923,24.78936Z" fill="#2b3650"/><path d="M206.24238,100.88822c-7.37639.68445-15.47359,2.73578-24.19355,2.70929-8.12741-.02475-15.7055-2.06458-22.65293-2.70929a4.26286,4.26286,0,0,1-2.95018-1.22216,4.15909,4.15909,0,0,1-1.22227-2.95042V58.09441a4.17265,4.17265,0,0,1,4.17245-4.17257h46.84647a4.17265,4.17265,0,0,1,4.17245,4.17257V96.71565A4.17265,4.17265,0,0,1,206.24238,100.88822Z" fill="#ffd665"/><circle cx="182.81923" cy="74.19713" r="4.7055" fill="#ff6c62"/><path d="M182.60959,74.13339h.41928a1.874,1.874,0,0,1,1.874,1.874v9.73568a1.874,1.874,0,0,1-1.874,1.874h-.41928a1.874,1.874,0,0,1-1.874-1.874V76.00739a1.874,1.874,0,0,1,1.874-1.874Z" fill="#ff6c62"/></g></g></svg>