<svg width="24" height="26" viewBox="0 0 24 26" fill="none" xmlns="http://www.w3.org/2000/svg">
<path d="M15.7344 7H8.70312C8.31481 7 8 7.31481 8 7.70312C8 8.09144 8.31481 8.40625 8.70312 8.40625H15.7344C16.1227 8.40625 16.4375 8.09144 16.4375 7.70312C16.4375 7.31481 16.1227 7 15.7344 7Z" fill="#878787"/>
<path d="M17 11H7C6.44773 11 6 11.3148 6 11.7031C6 12.0914 6.44773 12.4062 7 12.4062H17C17.5523 12.4062 18 12.0914 18 11.7031C18 11.3148 17.5523 11 17 11Z" fill="#878787"/>
<path d="M15.7344 15H8.70312C8.31481 15 8 15.3148 8 15.7031C8 16.0914 8.31481 16.4062 8.70312 16.4062H15.7344C16.1227 16.4062 16.4375 16.0914 16.4375 15.7031C16.4375 15.3148 16.1227 15 15.7344 15Z" fill="#878787"/>
<line x1="21" y1="2" x2="21" y2="24" stroke="#878787" stroke-width="2" stroke-linecap="round"/>
<line x1="3" y1="2" x2="3" y2="24" stroke="#878787" stroke-width="2" stroke-linecap="round"/>
<line x1="1" y1="1" x2="23" y2="1" stroke="#878787" stroke-width="2" stroke-linecap="round"/>
<line x1="3.14723" y1="23.9594" x2="7.35837" y2="21.8538" stroke="#878787" stroke-width="2" stroke-linecap="round"/>
<line x1="11.7584" y1="24.0482" x2="7.92127" y2="21.0116" stroke="#878787" stroke-width="2" stroke-linecap="round"/>
<line x1="12.0472" y1="24.0537" x2="16.3136" y2="21.9205" stroke="#878787" stroke-width="2" stroke-linecap="round"/>
<line x1="20.7584" y1="24.1426" x2="16.9392" y2="21.115" stroke="#878787" stroke-width="2" stroke-linecap="round"/>
</svg>
