<svg width="34" height="34" viewBox="0 0 34 34" fill="none" xmlns="http://www.w3.org/2000/svg">
<g clip-path="url(#clip0)">
<path d="M29.4775 2.9898C27.1985 1.19804 22.3216 0.070512 22.1148 0.0237694C21.7334 -0.0630762 21.3539 0.175683 21.2671 0.55706C21.2554 0.608384 21.2495 0.660903 21.2494 0.713555C21.2494 1.66965 19.2876 2.83822 17.0001 2.83822C14.7126 2.83822 12.7508 1.66965 12.7508 0.713555C12.7509 0.498034 12.6529 0.294199 12.4845 0.159748C12.3179 0.0213128 12.0962 -0.0311399 11.8853 0.0181258C11.6785 0.0648684 6.8031 1.1938 4.51982 2.98416C2.16144 4.84536 1.49005 13.8143 1.4192 14.8299C1.39982 15.1185 1.55797 15.3899 1.81864 15.5154C3.48265 16.286 5.26166 16.7788 7.08495 16.9743V31.8753C7.08542 32.1372 7.23029 32.3774 7.46175 32.5C7.57648 32.5623 10.3569 34 17.0001 34C23.6433 34 26.4237 32.5623 26.5384 32.5C26.7698 32.3774 26.9148 32.1372 26.9152 31.8753V16.9743C28.7381 16.7787 30.5165 16.2858 32.1802 15.5154C32.4414 15.3903 32.6001 15.1188 32.581 14.8299C32.5101 13.8143 31.8387 4.84536 29.4775 2.9898Z" fill="#03A9F4"/>
<path d="M7.79315 17.0021C7.40201 17.0021 7.0849 16.685 7.0849 16.2939V12.0446C7.1428 10.6908 6.71369 9.36113 5.87524 8.29667C5.60355 8.01535 5.61132 7.56698 5.89264 7.29522C6.16712 7.03017 6.60221 7.03017 6.87662 7.29522C7.99306 8.61942 8.5727 10.314 8.50126 12.0446V16.2939C8.50139 16.685 8.18428 17.0021 7.79315 17.0021Z" fill="#0288D1"/>
<path d="M26.2069 17.0027C25.8157 17.0027 25.4986 16.6856 25.4986 16.2945V12.0451C25.4265 10.3143 26.0056 8.61919 27.1219 7.2944C27.3936 7.01308 27.8419 7.00524 28.1233 7.277C28.4046 7.54876 28.4124 7.99706 28.1407 8.27845C28.135 8.28436 28.1292 8.29013 28.1233 8.29584C27.2851 9.3609 26.8564 10.6911 26.9151 12.0451V16.2945C26.9151 16.6856 26.598 17.0027 26.2069 17.0027Z" fill="#0288D1"/>
<path d="M22.408 0.168269C22.2462 0.0325562 22.0317 -0.0226186 21.8244 0.0181484C20.2308 0.341297 18.62 0.573482 17 0.713644C15.38 0.573549 13.7693 0.341363 12.1757 0.0181484C11.9684 -0.0224195 11.754 0.0327554 11.5921 0.168269C11.4292 0.302521 11.3347 0.502505 11.3343 0.713578C11.3343 2.83824 14.2635 4.25466 17 4.25466C19.7366 4.25466 22.6658 2.83824 22.6658 0.713578C22.6655 0.502505 22.5709 0.302521 22.408 0.168269Z" fill="#1976D2"/>
</g>
<defs>
<clipPath id="clip0">
<rect width="34" height="34" fill="white"/>
</clipPath>
</defs>
</svg>
