<svg width="21" height="21" viewBox="0 0 21 21" fill="none" xmlns="http://www.w3.org/2000/svg">
<path d="M20.4225 9.93866C20.8334 9.53821 20.9785 8.95049 20.8012 8.40416C20.6236 7.85782 20.1608 7.46782 19.5924 7.38505L14.5378 6.65061C14.3225 6.61926 14.1365 6.48425 14.0404 6.28904L11.7806 1.70934C11.5269 1.19478 11.0119 0.875 10.438 0.875C9.86448 0.875 9.34949 1.19478 9.09576 1.70934L6.83559 6.28945C6.73945 6.48466 6.55302 6.61968 6.33775 6.65103L1.2832 7.38547C0.715125 7.46782 0.251972 7.85824 0.0743186 8.40457C-0.102917 8.95091 0.042132 9.53863 0.453034 9.93908L4.11018 13.5038C4.2661 13.656 4.33758 13.875 4.3008 14.0891L3.43803 19.1227C3.36153 19.5658 3.47774 19.9968 3.76449 20.3366C4.21009 20.8662 4.988 21.0276 5.61 20.7007L10.1303 18.3239C10.3193 18.2248 10.5571 18.2257 10.7456 18.3239L15.2664 20.7007C15.4863 20.8165 15.7208 20.875 15.9628 20.875C16.4046 20.875 16.8235 20.6785 17.1115 20.3366C17.3987 19.9968 17.5144 19.565 17.4379 19.1227L16.5748 14.0891C16.538 13.8746 16.6095 13.656 16.7654 13.5038L20.4225 9.93866Z" fill="url(#paint0_linear)" fill-opacity="0.8"/>
<defs>
<linearGradient id="paint0_linear" x1="16.5" y1="12.375" x2="0.500001" y2="12.375" gradientUnits="userSpaceOnUse">
<stop offset="0.288019" stop-color="#FF5C00"/>
<stop offset="1" stop-color="#FF5C00" stop-opacity="0.21"/>
</linearGradient>
</defs>
</svg>
